<svg width="251" height="251" xmlns="http://www.w3.org/2000/svg" xmlns:xlink="http://www.w3.org/1999/xlink" xml:space="preserve" overflow="hidden"><g transform="translate(-451 -227)"><path d="M576.5 342.042C563.427 342.042 552.969 331.583 552.969 318.51 552.969 305.438 563.427 294.979 576.5 294.979 589.573 294.979 600.031 305.438 600.031 318.51 600.031 331.583 589.573 342.042 576.5 342.042ZM576.5 263.604C558.459 263.604 541.465 272.494 531.268 287.658 521.071 302.561 518.979 321.648 525.516 338.643L550.354 393.549 571.794 438.52C572.578 440.35 574.408 441.396 576.5 441.396 578.592 441.396 580.422 440.35 581.206 438.52L602.646 393.549 627.484 338.643C634.021 321.648 631.929 302.561 621.732 287.658 611.535 272.494 594.541 263.604 576.5 263.604Z"/></g></svg>